<svg viewBox="0 0 20 14" fill="none" xmlns="http://www.w3.org/2000/svg">
<g clip-path="url(#clip0_59_1672)">
<path d="M16.266 1.51509C15.1251 0.981965 13.9052 0.594518 12.6298 0.373901C12.4732 0.656724 12.2902 1.03712 12.164 1.33973C10.8083 1.1361 9.46501 1.1361 8.13415 1.33973C8.00802 1.03712 7.8209 0.656724 7.66286 0.373901C6.3861 0.594518 5.1648 0.983388 4.0239 1.51791C1.72269 4.99089 1.09887 8.37759 1.41078 11.7163C2.93707 12.8546 4.41621 13.5461 5.8704 13.9986C6.22945 13.5051 6.54967 12.9804 6.82553 12.4275C6.30014 12.2282 5.79693 11.9821 5.32145 11.6964C5.44759 11.6032 5.57098 11.5055 5.69019 11.4052C8.59026 12.7599 11.7412 12.7599 14.6067 11.4052C14.7273 11.5055 14.8506 11.6032 14.9754 11.6964C14.4985 11.9835 13.994 12.2295 13.4686 12.429C13.7444 12.9804 14.0633 13.5065 14.4237 14C15.8793 13.5475 17.3598 12.856 18.886 11.7163C19.252 7.8459 18.2609 4.4903 16.266 1.51509ZM7.22063 9.66301C6.35005 9.66301 5.63612 8.8513 5.63612 7.86286C5.63612 6.87444 6.33481 6.06135 7.22063 6.06135C8.10646 6.06135 8.82035 6.87302 8.80514 7.86286C8.8065 8.8513 8.10646 9.66301 7.22063 9.66301ZM13.0762 9.66301C12.2056 9.66301 11.4917 8.8513 11.4917 7.86286C11.4917 6.87444 12.1904 6.06135 13.0762 6.06135C13.962 6.06135 14.676 6.87302 14.6607 7.86286C14.6607 8.8513 13.962 9.66301 13.0762 9.66301Z" fill="#E8B96A"/>
</g>
<defs>
<clipPath id="clip0_59_1672">
<rect width="18.4187" height="13.6261" fill="white" transform="translate(0.89502 0.373901)"/>
</clipPath>
</defs>
</svg>
