<svg viewBox="0 0 20 15" fill="none" xmlns="http://www.w3.org/2000/svg">
<g clip-path="url(#clip0_59_1682)">
<mask id="mask0_59_1682" style="mask-type:luminance" maskUnits="userSpaceOnUse" x="0" y="-3" width="20" height="20">
<path d="M19.9993 -2.19751H0.898438V16.879H19.9993V-2.19751Z" fill="white"/>
</mask>
<g mask="url(#mask0_59_1682)">
<path d="M9.49436 11.931C9.79281 11.931 10.0614 12.1695 10.0614 12.4973C10.0614 12.7954 9.82262 13.0637 9.49436 13.0637C9.19591 13.0637 8.92727 12.8253 8.92727 12.4973C8.92727 12.1695 9.19591 11.931 9.49436 11.931ZM18.2688 8.47342C17.9704 8.47342 17.7017 8.23497 17.7017 7.90706C17.7017 7.60899 17.9405 7.34076 18.2688 7.34076C18.5673 7.34076 18.8359 7.57921 18.8359 7.90706C18.8359 8.20513 18.5673 8.47342 18.2688 8.47342ZM18.2688 6.17827C17.3138 6.17827 16.5378 6.95325 16.5378 7.90706C16.5378 8.0859 16.5676 8.26474 16.6273 8.44358L10.9269 11.4839C10.5986 11.007 10.0614 10.7388 9.49436 10.7388C8.83777 10.7388 8.24086 11.1262 7.94241 11.6926L2.80904 9.00995C2.27183 8.71188 1.85399 7.84744 1.91368 7.01284C1.94353 6.59557 2.09276 6.26769 2.30167 6.14846C2.4509 6.05904 2.60012 6.08885 2.80904 6.17827L2.83888 6.20807C4.21176 6.92344 8.6587 9.24841 8.83777 9.3378C9.13622 9.45702 9.28541 9.51664 9.79281 9.27818L18.9851 4.50904C19.1343 4.44942 19.2836 4.3302 19.2836 4.12155C19.2836 3.85328 19.0149 3.73406 19.0149 3.73406C18.4777 3.4956 17.6719 3.10811 16.896 2.75042C15.2246 1.97544 13.3145 1.08123 12.4789 0.634124C11.7626 0.246632 11.1657 0.57451 11.0761 0.634124L10.8672 0.723545C7.0769 2.63119 2.06291 5.10518 1.76446 5.28402C1.25709 5.58209 0.928793 6.20808 0.898947 6.98306C0.839257 8.20513 1.46601 9.48686 2.36136 9.93394L7.79315 12.7358C7.91253 13.5704 8.6587 14.2262 9.49436 14.2262C10.4494 14.2262 11.1955 13.481 11.2254 12.5272L17.1944 9.30802C17.4929 9.54648 17.8808 9.66571 18.2688 9.66571C19.2239 9.66571 19.9999 8.89072 19.9999 7.9369C19.9999 6.95325 19.2239 6.17827 18.2688 6.17827Z" fill="#E8B96A"/>
</g>
</g>
<defs>
<clipPath id="clip0_59_1682">
<rect width="19.1009" height="14.3074" fill="white" transform="translate(0.899414 0.187012)"/>
</clipPath>
</defs>
</svg>
