<svg viewBox="0 0 18 14" fill="none" xmlns="http://www.w3.org/2000/svg">
<g clip-path="url(#clip0_59_1670)">
<path fill-rule="evenodd" clip-rule="evenodd" d="M13.3793 13.8495C13.5989 14.0048 13.882 14.0437 14.1344 13.9483C14.3868 13.8522 14.5724 13.6369 14.6283 13.376C15.2211 10.5935 16.6592 3.55092 17.1988 1.01988C17.2397 0.829113 17.1715 0.630854 17.0214 0.50345C16.8713 0.376046 16.6633 0.339256 16.4777 0.408068C13.6173 1.46545 4.80842 4.76637 1.2079 6.09696C0.979372 6.18144 0.830658 6.40082 0.838162 6.64132C0.846348 6.8825 1.00871 7.09166 1.24269 7.16184C2.8574 7.64417 4.97692 8.31525 4.97692 8.31525C4.97692 8.31525 5.96744 11.3028 6.48384 12.8221C6.54865 13.0128 6.69805 13.1627 6.89519 13.2145C7.09166 13.2656 7.30177 13.2118 7.44844 13.0735C8.27796 12.2913 9.56045 11.082 9.56045 11.082C9.56045 11.082 11.9972 12.8664 13.3793 13.8495ZM5.86852 7.93781L7.01389 11.7109L7.26834 9.32154C7.26834 9.32154 11.6936 5.33526 14.2163 3.06311C14.29 2.99634 14.3002 2.88461 14.2388 2.80626C14.1781 2.72791 14.0662 2.70951 13.9823 2.76266C11.0585 4.62738 5.86852 7.93781 5.86852 7.93781Z" fill="#E8B96A"/>
</g>
<defs>
<clipPath id="clip0_59_1670">
<rect width="16.3722" height="13.6261" fill="white" transform="translate(0.837891 0.373901)"/>
</clipPath>
</defs>
</svg>
