<svg viewBox="0 0 17 14" fill="none" xmlns="http://www.w3.org/2000/svg">
<g clip-path="url(#clip0_59_1668)">
<path d="M16.3722 2.11598C15.7698 2.38305 15.1224 2.56292 14.443 2.64399C15.1368 2.22908 15.6696 1.57162 15.9199 0.788116C15.2712 1.17237 14.5522 1.45171 13.7868 1.60228C13.1748 0.950267 12.301 0.542847 11.335 0.542847C9.16638 0.542847 7.57282 2.5636 8.06262 4.66133C5.27185 4.52166 2.79692 3.18631 1.13991 1.1567C0.259909 2.66443 0.683539 4.63681 2.17887 5.6356C1.62903 5.61788 1.11058 5.46731 0.658299 5.21591C0.621461 6.76997 1.73682 8.22384 3.35221 8.54746C2.87946 8.67554 2.36169 8.70552 1.83505 8.60469C2.26209 9.93732 3.50229 10.9068 4.97305 10.9341C3.56095 12.0398 1.78184 12.5338 0 12.3239C1.48646 13.2757 3.25261 13.831 5.14906 13.831C11.3855 13.831 14.9089 8.57062 14.6961 3.85262C15.3523 3.37912 15.922 2.78843 16.3722 2.11598Z" fill="#E8B96A"/>
</g>
<defs>
<clipPath id="clip0_59_1668">
<rect width="16.3722" height="13.6261" fill="white" transform="translate(0 0.373901)"/>
</clipPath>
</defs>
</svg>
